<?xml version="1.0" encoding="UTF-8" standalone="no"?>
<!-- Created with Inkscape (http://www.inkscape.org/) -->

<svg
   width="54.21719mm"
   height="72.183113mm"
   viewBox="0 0 54.21719 72.183113"
   version="1.1"
   id="svg1"
   inkscape:version="1.3.2 (091e20ef0f, 2023-11-25)"
   sodipodi:docname="hack-logo.svg"
   xmlns:inkscape="http://www.inkscape.org/namespaces/inkscape"
   xmlns:sodipodi="http://sodipodi.sourceforge.net/DTD/sodipodi-0.dtd"
   xmlns="http://www.w3.org/2000/svg"
   xmlns:svg="http://www.w3.org/2000/svg">
  <sodipodi:namedview
     id="namedview1"
     pagecolor="#ffffff"
     bordercolor="#666666"
     borderopacity="1.0"
     inkscape:showpageshadow="2"
     inkscape:pageopacity="0.0"
     inkscape:pagecheckerboard="0"
     inkscape:deskcolor="#d1d1d1"
     inkscape:document-units="mm"
     inkscape:zoom="0.29734127"
     inkscape:cx="70.625918"
     inkscape:cy="295.95623"
     inkscape:window-width="1914"
     inkscape:window-height="1043"
     inkscape:window-x="0"
     inkscape:window-y="31"
     inkscape:window-maximized="1"
     inkscape:current-layer="layer1" />
  <defs
     id="defs1" />
  <g
     inkscape:label="Layer 1"
     inkscape:groupmode="layer"
     id="layer1"
     transform="translate(-85.989578,-70.643749)">
    <path
       id="rect9-1"
       style="fill:#5607ff;stroke-width:0"
       d="m 100.49545,70.65531 c -0.0926,0.0251 -0.14427,0.0889 -0.22583,0.17053 -0.369897,0.36992 -0.19805,0.64147 0.59893,0.94517 0.27691,0.1055 0.97846,0.3916 1.55857,0.63562 0.5801,0.24401 1.78806,0.73903 2.68459,1.10019 0.89652,0.36115 2.16955,0.87946 2.82876,1.15187 2.56768,1.06105 4.6573,1.90952 10.69134,4.34133 1.37117,0.55261 3.33417,1.35202 4.36255,1.77612 2.15788,0.88988 4.49635,1.84487 6.28076,2.56522 4.06117,1.63948 7.0604,2.87848 7.47861,3.08922 1.02453,0.51629 1.6665,1.26032 2.14096,2.4815 l 0.25631,0.65939 0.0274,18.65003 c 0.0177,12.11916 -0.006,18.86652 -0.0687,19.2691 -0.1191,0.76799 -0.57541,1.71568 -1.00976,2.09703 -0.29356,0.25775 -2.09127,1.35348 -3.64732,2.22312 -0.31642,0.17684 -0.9068,0.54011 -1.31206,0.80719 -0.40526,0.26707 -1.09574,0.6976 -1.53428,0.95653 -0.9485,0.56003 -2.90881,1.73077 -3.91345,2.33732 -0.39553,0.23881 -1.90559,1.14683 -3.35587,2.01745 -1.45027,0.87062 -3.28417,1.98045 -4.07523,2.46652 -1.73634,1.0669 -2.12384,1.2667 -2.60812,1.3441 -0.71496,0.11433 -0.6419,0.14685 -7.31583,-3.24269 -1.66121,-0.84371 -3.06386,-1.56682 -3.1166,-1.60662 -0.0527,-0.0398 -1.92948,-0.99844 -4.17081,-2.13062 -2.24132,-1.13219 -4.614877,-2.34001 -5.274087,-2.68408 -0.65922,-0.34407 -2.03966,-1.05723 -3.06803,-1.5844 -1.02837,-0.52717 -3.04391,-1.5683 -4.4788,-2.31355 -1.43489,-0.74526 -2.71169,-1.35496 -2.83755,-1.35496 -0.29563,0 -0.57066,0.30598 -0.5302,0.59015 0.0348,0.24431 0.24027,0.35806 5.5454,3.06906 1.55574,0.79501 3.75629,1.93128 4.89014,2.52491 1.91442,1.00233 5.956067,3.07008 10.151317,5.19348 0.96873,0.49033 1.81001,0.93152 1.86964,0.98082 0.10962,0.0906 6.89011,3.48916 7.15616,3.58686 0.25858,0.095 1.24764,0.0701 1.69447,-0.0424 0.43619,-0.10983 1.57371,-0.77489 8.661,-5.06481 2.03038,-1.22899 4.36056,-2.63244 5.17798,-3.11867 0.81743,-0.48625 2.09045,-1.25072 2.82877,-1.69861 0.73832,-0.44786 1.86288,-1.11929 2.49959,-1.49241 1.74076,-1.0201 2.47222,-1.89266 2.76055,-3.29282 0.19423,-0.94329 0.11035,-37.89109 -0.0884,-38.9046 -0.20311,-1.03605 -0.61288,-1.81365 -1.36322,-2.58486 -0.84678,-0.87032 -0.96545,-0.92567 -8.65115,-4.04265 -1.39753,-0.56677 -3.81396,-1.54955 -5.3697,-2.18436 -4.78019,-1.9505 -5.86848,-2.39385 -9.5886,-3.90622 -3.21561,-1.30727 -4.87644,-1.98745 -10.69081,-4.37803 -2.92571,-1.2029 -3.57165,-1.4779 -3.84938,-1.4025 z m -0.0289,11.14764 c -0.839807,0.0829 -1.855037,0.55149 -3.888647,1.48932 -1.99287,0.91904 -2.48304,1.18933 -2.73162,1.50533 -0.18995,0.24151 -0.19275,0.37539 -0.19275,9.50123 0,8.47866 0.0133,9.27137 0.15865,9.43198 0.19424,0.21467 0.4021,0.22336 0.68264,0.0269 l 0.21343,-0.14935 v -9.155 -9.15448 l 0.93482,-0.43976 c 3.8892,-1.83003 4.26331,-1.98685 4.842597,-2.02985 0.62045,-0.046 0.55333,-0.0698 3.23546,1.15548 1.76092,0.80448 3.48249,1.56714 7.14375,3.16518 1.21294,0.52941 2.96058,1.29442 3.88348,1.70016 0.9229,0.40573 3.2097,1.40848 5.08187,2.22829 4.93742,2.16206 4.78895,2.08828 5.25242,2.61482 0.78836,0.89563 0.73275,-0.0455 0.78755,13.33872 0.0405,9.89143 0.0709,11.92589 0.18035,12.05767 0.17177,0.20671 0.51937,0.20204 0.7059,-0.009 0.13136,-0.14946 0.14606,-1.47262 0.13436,-12.10572 l -0.0129,-11.93777 -0.21239,-0.62322 c -0.39438,-1.15779 -1.12993,-2.00717 -2.09135,-2.41484 -0.20956,-0.0889 -1.24435,-0.53633 -2.29909,-0.99425 -1.05475,-0.45792 -2.32728,-1.00438 -2.82827,-1.2144 -0.50101,-0.21003 -1.57985,-0.6838 -2.39728,-1.05265 -0.81742,-0.36885 -2.45711,-1.09312 -3.6437,-1.60972 -1.18658,-0.51659 -3.23634,-1.42432 -4.55476,-2.01693 -1.31843,-0.59261 -2.76394,-1.2378 -3.21221,-1.43402 -0.44826,-0.19622 -1.49898,-0.66793 -2.33525,-1.048 -1.33278,-0.60572 -1.99723,-0.90859 -2.83704,-0.82579 z m 1.37459,14.17071 c -0.22308,-0.0246 -0.41677,-0.0232 -0.55655,0.0119 -0.28442,0.0714 -0.41166,0.42377 -0.25735,0.7121 0.0756,0.14127 0.33073,0.24465 0.96945,0.39171 1.34349,0.30934 1.39707,0.35086 2.98535,2.31975 1.54814,1.91916 3.32276,3.99053 3.46541,4.04523 0.0855,0.0329 0.42119,-0.23576 0.89349,-0.7152 1.43436,-1.45606 4.35368,-4.11944 4.48138,-4.08864 0.0704,0.017 0.47055,0.48394 0.88935,1.03767 0.85529,1.13085 1.21811,1.68938 1.17099,1.80299 -0.0176,0.0423 -0.93788,0.91145 -2.04535,1.93114 -1.10748,1.0197 -2.53271,2.36618 -3.16725,2.99259 l -1.15394,1.13895 -0.57205,-0.73898 c -2.58427,-3.3381 -3.27729,-3.95938 -5.24154,-4.69945 -1.02848,-0.38751 -1.87029,-0.51727 -2.00246,-0.30851 -0.0468,0.0738 -0.086,0.25203 -0.0868,0.39584 -0.002,0.33642 0.28576,0.52612 1.07125,0.70693 0.3329,0.0766 1.00209,0.33536 1.48673,0.57465 0.70774,0.34946 1.00545,0.56717 1.51412,1.10639 0.84047,0.89094 2.0877,2.40144 2.51974,3.05201 0.50084,0.75419 0.97505,1.25057 1.19527,1.25057 0.11233,0 0.61188,-0.40653 1.2113,-0.98495 2.56873,-2.47873 5.84076,-5.43985 6.00635,-5.43585 0.0527,0.002 0.2135,0.18423 0.35709,0.4067 0.14359,0.22247 0.58526,0.83585 0.98185,1.36322 0.39658,0.52737 0.9432,1.27258 1.2144,1.65571 0.31538,0.44556 0.57953,0.71805 0.73277,0.75655 0.15912,0.04 0.48446,-0.04 0.96946,-0.23823 0.40166,-0.1641 0.9871,-0.38675 1.3007,-0.49455 0.80488,-0.27664 1.01183,-0.43182 1.01183,-0.76016 0,-0.48904 -0.40443,-0.51192 -1.74512,-0.0982 -0.52322,0.16146 -1.04486,0.27995 -1.15963,0.26355 -0.19524,-0.028 -0.56071,-0.50323 -2.36885,-3.08405 -0.21626,-0.30866 -0.38009,-0.59796 -0.36432,-0.64286 0.0316,-0.0898 1.67379,-1.24357 2.95332,-2.0748 2.16867,-1.40888 2.1575,-1.39963 2.1575,-1.70326 0,-0.20455 -0.0684,-0.32236 -0.24443,-0.42116 -0.23191,-0.13016 -0.29535,-0.10664 -1.24645,0.46612 -0.55118,0.33193 -1.6995,1.07175 -2.55127,1.64383 -0.85177,0.57208 -1.61008,1.04024 -1.68517,1.04024 -0.0751,0 -0.66978,-0.71663 -1.32189,-1.59215 -0.6521,-0.87553 -1.28408,-1.65618 -1.40404,-1.73478 -0.20727,-0.1358 -0.25049,-0.11535 -0.86869,0.40618 -0.53641,0.45253 -3.2986,2.97056 -4.38422,3.99666 -0.15504,0.14654 -0.31596,0.26613 -0.3576,0.26613 -0.11416,0 -0.65502,-0.61273 -2.51096,-2.84634 -0.93619,-1.12671 -1.87386,-2.16 -2.1053,-2.31924 -0.535,-0.36808 -1.46861,-0.67996 -2.13785,-0.75396 z m -5.538677,12.86382 c -0.054,0.0136 -0.11158,0.0402 -0.18603,0.076 -0.16796,0.0806 -0.95952,0.70901 -1.75907,1.39682 -2.89379,2.4894 -3.84254,3.12555 -6.55309,4.39404 -1.39026,0.65063 -1.69361,0.82903 -1.77043,1.04077 -0.15827,0.43625 0.0888,0.71959 1.05161,1.20561 1.14221,0.57662 5.68,2.92691 6.95152,3.6003 0.55374,0.29325 2.06381,1.07546 3.35587,1.73839 1.29205,0.66294 2.39258,1.23677 2.44532,1.27537 0.0527,0.0385 1.713617,0.89049 3.691247,1.89343 1.97764,1.00295 4.95492,2.51755 6.61613,3.36569 1.66122,0.84813 3.07008,1.52466 3.13056,1.50326 0.0605,-0.0215 0.42716,-0.26496 0.81494,-0.54105 1.41473,-1.00724 2.89531,-2.34396 5.16713,-4.66586 1.2768,-1.30494 2.38572,-2.46984 2.46446,-2.58848 0.23992,-0.36156 -0.0209,-0.58853 -1.61645,-1.40715 -0.81106,-0.41611 -2.01401,-1.0461 -2.67323,-1.39991 -0.65921,-0.35382 -2.12642,-1.11793 -3.26026,-1.69809 -4.48401,-2.29435 -7.23708,-3.71409 -12.46487,-6.42803 -0.60648,-0.31485 -1.749877,-0.90637 -2.540927,-1.31465 -0.79106,-0.40827 -1.73245,-0.91659 -2.09186,-1.12965 -0.31863,-0.18886 -0.48385,-0.28494 -0.60669,-0.31574 -0.0614,-0.0154 -0.11186,-0.0147 -0.16588,-0.001 z m 0.0419,1.30121 c 0.1069,0 4.319057,2.08843 5.123717,2.54041 0.40978,0.23018 1.57334,0.8323 6.95151,3.59565 1.87216,0.96192 3.74943,1.93197 4.17132,2.15594 0.4219,0.22395 1.45736,0.76318 2.30115,1.19838 0.8438,0.4352 2.40554,1.24833 3.47059,1.80712 l 1.93633,1.01596 -0.48835,0.53123 c -1.82123,1.97935 -4.35915,4.42236 -5.44308,5.23948 -0.65756,0.4957 -1.24012,0.89587 -1.2945,0.88987 -0.0544,-0.006 -0.40081,-0.17019 -0.76997,-0.36432 v 5.1e-4 c -0.36916,-0.19413 -2.93639,-1.51039 -5.70508,-2.92488 -2.76869,-1.41449 -5.07718,-2.60395 -5.12992,-2.64325 -0.0527,-0.0394 -1.28238,-0.67603 -2.732647,-1.41439 -1.45026,-0.73834 -4.52132,-2.31878 -6.82439,-3.51244 -2.30307,-1.19365 -4.23378,-2.17041 -4.29069,-2.17041 -0.0569,0 -0.10335,-0.0434 -0.10335,-0.0961 0,-0.0527 0.054,-0.0967 0.11988,-0.0977 0.2677,-0.004 1.79199,-0.70081 2.73265,-1.24954 1.1315,-0.66003 2.05033,-1.29709 3.06855,-2.12648 l 0.69608,-0.56637 0.55811,0.33899 c 0.30714,0.18657 1.00799,0.5537 1.55753,0.81597 0.92193,0.43999 2.8555,1.42958 6.752557,3.45561 4.02048,2.09019 5.9533,3.10378 6.04097,3.16828 0.0527,0.0387 0.82894,0.44245 1.72547,0.8971 0.89653,0.45464 2.14787,1.10765 2.78071,1.45108 1.21788,0.66091 1.46351,0.72681 1.70016,0.45733 0.41193,-0.46912 0.24045,-0.84238 -0.52659,-1.1467 -0.62473,-0.24785 -4.06543,-2.01376 -6.68692,-3.43235 -1.08874,-0.58916 -7.84696,-4.06294 -11.338847,-5.82806 l -1.79834,-0.90899 0.66663,-0.53847 c 0.36661,-0.2962 0.71707,-0.53847 0.77876,-0.53847 z m 1.83503,5.75314 c -0.49953,0 -0.66419,0.79924 -0.21084,1.02319 0.13185,0.0651 1.85779,0.94815 3.835427,1.96216 4.72175,2.42099 5.59717,2.86379 5.66787,2.8639 0.0324,6e-5 0.17265,-0.0896 0.31161,-0.19895 0.27424,-0.21573 0.3326,-0.57448 0.12195,-0.74931 -0.0719,-0.0597 -0.92373,-0.51055 -1.89342,-1.00252 -0.96969,-0.49197 -3.08793,-1.57075 -4.7072,-2.39675 -1.619277,-0.826 -3.025707,-1.50172 -3.125397,-1.50172 z"
       sodipodi:nodetypes="scssssssssccccssssssscsssssssssssssssssssssssssscsssscccccccsssssccccccsssssssccsssscsssssccsssssssssscsssscssscssssssssssssssscscsssssscsscsssssssssssssssscccssccscsssscsccssscssssscccssssssssss" />
  </g>
</svg>
